<svg xmlns="http://www.w3.org/2000/svg" viewBox="0 0 64 64" fill="none">
  <defs>
    <linearGradient id="shield-grad" x1="0" y1="0" x2="1" y2="1">
      <stop offset="0%" stop-color="#3b82f6"/>
      <stop offset="100%" stop-color="#8b5cf6"/>
    </linearGradient>
  </defs>
  <path d="M32 4L8 16v16c0 14.4 10.24 27.84 24 32 13.76-4.16 24-17.6 24-32V16L32 4z" fill="url(#shield-grad)" opacity="0.9"/>
  <path d="M32 8L12 18v14c0 12.6 8.96 24.36 20 28 11.04-3.64 20-15.4 20-28V18L32 8z" fill="#0f172a" opacity="0.8"/>
  <circle cx="32" cy="30" r="10" stroke="#3b82f6" stroke-width="2" fill="none"/>
  <circle cx="32" cy="30" r="6" stroke="#8b5cf6" stroke-width="1.5" fill="none"/>
  <circle cx="32" cy="30" r="2" fill="#3b82f6"/>
  <line x1="32" y1="20" x2="32" y2="24" stroke="#3b82f6" stroke-width="1.5"/>
  <line x1="32" y1="36" x2="32" y2="40" stroke="#3b82f6" stroke-width="1.5"/>
  <line x1="22" y1="30" x2="26" y2="30" stroke="#3b82f6" stroke-width="1.5"/>
  <line x1="38" y1="30" x2="42" y2="30" stroke="#3b82f6" stroke-width="1.5"/>
</svg>
